<?xml version="1.0" encoding="UTF-8"?>
<svg xmlns="http://www.w3.org/2000/svg" viewBox="0 0 48 48">
  <path fill="#0052FF" d="M24 48c13.255 0 24-10.745 24-24S37.255 0 24 0 0 10.745 0 24s10.745 24 24 24z"/>
  <path fill="#FFF" d="M24.0866 11.5C17.3073 11.5 11.8 16.9851 11.8 23.7357C11.8 30.4863 17.3073 35.9714 24.0866 35.9714C30.8659 35.9714 36.3732 30.4863 36.3732 23.7357C36.3732 16.9851 30.8659 11.5 24.0866 11.5ZM24.0866 31.8499C19.5783 31.8499 15.9393 28.2229 15.9393 23.7357C15.9393 19.2486 19.5783 15.6215 24.0866 15.6215C28.5949 15.6215 32.2339 19.2486 32.2339 23.7357C32.2339 28.2229 28.5949 31.8499 24.0866 31.8499Z"/>
</svg>
