<?xml version="1.0" encoding="UTF-8"?>
<svg xmlns="http://www.w3.org/2000/svg" viewBox="0 0 404 420">
  <path fill="#E2761B" stroke="#E2761B" stroke-linecap="round" stroke-linejoin="round" d="m397.78 36.671-168.73-5.32-76.03 56.884L193.2 36.671z"/>
  <path fill="#E4761B" stroke="#E4761B" stroke-linecap="round" stroke-linejoin="round" d="m6.219 36.671 167.37-5.32-74.67 56.884L6.219 36.671z"/>
  <path fill="#E4761B" stroke="#E4761B" stroke-linecap="round" stroke-linejoin="round" d="m340.42 292.08-44.01 67.31 94.21 25.94 27.02-91.91z"/>
  <path fill="#E4761B" stroke="#E4761B" stroke-linecap="round" stroke-linejoin="round" d="m6.219 36.671 78.29 152.94-7.93 90.55zM289.1 180.27l-27.02-91.91-36.08-27.02zM86.87 180.27l63.1-118.93-36.08 27.02z"/>
  <path fill="#F6851B" stroke="#F6851B" stroke-linecap="round" stroke-linejoin="round" d="m76.509 293.44 94.21-25.94-44.01-67.31z"/>
  <path fill="#763D16" stroke="#763D16" stroke-linecap="round" stroke-linejoin="round" d="m179.92 207.29-36.08-27.02h-57.79l36.08 27.02z"/>
  <path fill="#763D16" stroke="#763D16" stroke-linecap="round" stroke-linejoin="round" d="m224.09 207.29 57.79-27.02h-57.79l-36.08 27.02z"/>
  <path fill="#E4761B" stroke="#E4761B" stroke-linecap="round" stroke-linejoin="round" d="m76.509 293.44 27.02-91.91-36.08 27.02zM296.41 293.44l-27.02-91.91 36.08 27.02z"/>
  <path fill="#E4761B" stroke="#E4761B" stroke-linecap="round" stroke-linejoin="round" d="m179.92 207.29 36.08-27.02-36.08-91.91zM224.09 207.29l-36.08-27.02 36.08-91.91z"/>
  <path fill="#F6851B" stroke="#F6851B" stroke-linecap="round" stroke-linejoin="round" d="m179.92 207.29-36.08-27.02 36.08 27.02zM224.09 207.29l-36.08-27.02 36.08 27.02z"/>
</svg>
