<?xml version="1.0" encoding="UTF-8"?>
<svg xmlns="http://www.w3.org/2000/svg" viewBox="0 0 128 128">
  <defs>
    <linearGradient id="a" x1="10.93" y1="10.93" x2="117.07" y2="117.07" gradientUnits="userSpaceOnUse">
      <stop offset="0" stop-color="#534BB1"/>
      <stop offset="1" stop-color="#551BF9"/>
    </linearGradient>
  </defs>
  <circle cx="64" cy="64" r="64" fill="url(#a)"/>
  <path fill="#FFF" d="M108.5 67.88c-.42-3.37-2.54-6.54-5.54-8.25l-47.28-27.3c-1.42-.82-3-1.26-4.58-1.26-1.7 0-3.4.5-4.86 1.45L19.1 48.83c-2.67 1.73-4.43 4.57-4.77 7.77-.34 3.2.87 6.32 3.3 8.52l1.46 1.32c1.86 1.68 4.14 2.5 6.4 2.5 2.2 0 4.38-.77 6.2-2.32L44.8 56.14c1.26-1.08 2.8-1.62 4.33-1.62 1.42 0 2.84.47 4.04 1.4l34.56 19.95c2.03 1.17 3.32 3.17 3.5 5.46.18 2.3-.8 4.46-2.66 5.93l-13.13 10.28c-1.86 1.46-4.1 2.17-6.35 2.17-2.14 0-4.27-.64-6.1-1.93l-16.6-11.64c-1.2-.84-2.6-1.28-4-1.28-1.66 0-3.33.6-4.66 1.84L24.9 97.07c-2.1 1.95-3.05 4.84-2.45 7.48.6 2.64 2.5 4.77 5.02 5.67 1.2.42 2.44.64 3.67.64 1.67 0 3.33-.4 4.86-1.17l59.05-30.2c2.95-1.5 5.1-4.2 5.85-7.38.76-3.18.1-6.54-1.82-9.2l9.4 5.43V67.9z"/>
</svg>
